<svg width="66" height="66" viewBox="0 0 66 66" fill="none" xmlns="http://www.w3.org/2000/svg">
<g style="mix-blend-mode:multiply" opacity="0.1">
<circle cx="33" cy="33" r="33" fill="#FACA10"/>
</g>
<g filter="url(#filter0_i_3307_2432)">
<circle cx="33" cy="33" r="28" fill="#FACA10"/>
</g>
<g filter="url(#filter1_d_3307_2432)">
<path d="M43.466 36.0864C38.8707 36.2656 34.5201 37.4605 30.6437 39.4408L25.6592 42.3191C24.341 43.0791 22.6575 42.6229 21.901 41.3115L19.3678 36.9251C18.6096 35.6114 19.0615 33.9251 20.3753 33.1669L24.505 30.7823C24.7441 30.6442 25.0499 30.7261 25.1881 30.9653L28.433 36.5858C28.5735 36.8291 28.8877 36.9098 29.1288 36.7612C29.362 36.6175 29.4257 36.3051 29.2887 36.0678L26.0203 30.4067C25.8905 30.1818 25.9542 29.8948 26.1676 29.7468C29.5769 27.3831 32.4613 24.3726 34.6763 20.8616C35.5155 19.5303 37.4709 19.566 38.2596 20.9316L45.1966 32.9482C45.985 34.3108 45.0411 36.0251 43.466 36.0864ZM44.3561 27.7173C44.6129 26.2473 43.7514 24.773 42.3589 24.2684C41.9212 24.1098 41.5242 24.5861 41.7569 24.9893C42.3109 25.9491 42.8669 26.9123 43.4291 27.8857C43.664 28.2923 44.2753 28.1798 44.3561 27.7173ZM32.8138 45.4098L30.441 41.2907C30.3031 41.0513 29.9969 40.9693 29.7576 41.1073C28.4716 41.8493 28.423 41.8781 26.7076 42.8683C26.4684 43.0063 26.3862 43.3123 26.5243 43.5515L28.9012 47.668C29.2059 48.1951 29.7538 48.4817 30.3118 48.4817C30.8531 48.4817 31.0601 48.2986 32.2188 47.6298C32.995 47.1817 33.2619 46.1854 32.8138 45.4098ZM48.007 23.9154C48.2461 23.7773 48.3281 23.4715 48.19 23.2324C48.052 22.9933 47.7463 22.9112 47.507 23.0494L46.2132 23.7963C45.7705 24.052 45.9557 24.7295 46.4637 24.7295C46.6416 24.7294 46.6059 24.7243 48.007 23.9154ZM43.4092 21.3244L43.7247 20.1471C43.7962 19.8803 43.6379 19.6062 43.3712 19.5347C43.1043 19.4633 42.8303 19.6215 42.7588 19.8883L42.4432 21.0656C42.3583 21.3826 42.5972 21.6951 42.9265 21.6951C43.1473 21.6951 43.3493 21.5478 43.4092 21.3244ZM48.9829 29.2544C49.0544 28.9877 48.896 28.7135 48.6293 28.642L47.452 28.3266C47.1853 28.2553 46.9111 28.4135 46.8396 28.6802C46.7681 28.9469 46.9264 29.2211 47.1931 29.2926C48.4807 29.6376 48.41 29.6252 48.5002 29.6252C48.7209 29.6252 48.923 29.4778 48.9829 29.2544Z" fill="#E8BA03"/>
<path d="M42.466 35.0864C37.8707 35.2656 33.5201 36.4605 29.6437 38.4408L24.6592 41.3191C23.341 42.0791 21.6575 41.6229 20.901 40.3115L18.3678 35.9251C17.6096 34.6114 18.0615 32.9251 19.3753 32.1669L23.505 29.7823C23.7441 29.6442 24.0499 29.7261 24.1881 29.9653L27.433 35.5858C27.5735 35.8291 27.8877 35.9098 28.1288 35.7612C28.362 35.6175 28.4257 35.3051 28.2887 35.0678L25.0203 29.4067C24.8905 29.1818 24.9542 28.8948 25.1676 28.7468C28.5769 26.3831 31.4613 23.3726 33.6763 19.8616C34.5155 18.5303 36.4709 18.566 37.2596 19.9316L44.1966 31.9482C44.985 33.3108 44.0411 35.0251 42.466 35.0864ZM43.3561 26.7173C43.6129 25.2473 42.7514 23.773 41.3589 23.2684C40.9212 23.1098 40.5242 23.5861 40.7569 23.9893C41.3109 24.9491 41.8669 25.9123 42.4291 26.8857C42.664 27.2923 43.2753 27.1798 43.3561 26.7173ZM31.8138 44.4098L29.441 40.2907C29.3031 40.0513 28.9969 39.9693 28.7576 40.1073C27.4716 40.8493 27.423 40.8781 25.7076 41.8683C25.4684 42.0063 25.3862 42.3123 25.5243 42.5515L27.9012 46.668C28.2059 47.1951 28.7538 47.4817 29.3118 47.4817C29.8531 47.4817 30.0601 47.2986 31.2188 46.6298C31.995 46.1817 32.2619 45.1854 31.8138 44.4098ZM47.007 22.9154C47.2461 22.7773 47.3281 22.4715 47.19 22.2324C47.052 21.9933 46.7463 21.9112 46.507 22.0494L45.2132 22.7963C44.7705 23.052 44.9557 23.7295 45.4637 23.7295C45.6416 23.7294 45.6059 23.7243 47.007 22.9154ZM42.4092 20.3244L42.7247 19.1471C42.7962 18.8803 42.6379 18.6062 42.3712 18.5347C42.1043 18.4633 41.8303 18.6215 41.7588 18.8883L41.4432 20.0656C41.3583 20.3826 41.5972 20.6951 41.9265 20.6951C42.1473 20.6951 42.3493 20.5478 42.4092 20.3244ZM47.9829 28.2544C48.0544 27.9877 47.896 27.7135 47.6293 27.642L46.452 27.3266C46.1853 27.2553 45.9111 27.4135 45.8396 27.6802C45.7681 27.9469 45.9264 28.2211 46.1931 28.2926C47.4807 28.6376 47.41 28.6252 47.5002 28.6252C47.7209 28.6252 47.923 28.4778 47.9829 28.2544Z" fill="white"/>
</g>
<defs>
<filter id="filter0_i_3307_2432" x="5" y="5" width="56" height="56" filterUnits="userSpaceOnUse" color-interpolation-filters="sRGB">
<feFlood flood-opacity="0" result="BackgroundImageFix"/>
<feBlend mode="normal" in="SourceGraphic" in2="BackgroundImageFix" result="shape"/>
<feColorMatrix in="SourceAlpha" type="matrix" values="0 0 0 0 0 0 0 0 0 0 0 0 0 0 0 0 0 0 127 0" result="hardAlpha"/>
<feOffset/>
<feGaussianBlur stdDeviation="0.5"/>
<feComposite in2="hardAlpha" operator="arithmetic" k2="-1" k3="1"/>
<feColorMatrix type="matrix" values="0 0 0 0 0 0 0 0 0 0 0 0 0 0 0 0 0 0 0.2 0"/>
<feBlend mode="normal" in2="shape" result="effect1_innerShadow_3307_2432"/>
</filter>
<filter id="filter1_d_3307_2432" x="14" y="18.5176" width="39" height="37.9639" filterUnits="userSpaceOnUse" color-interpolation-filters="sRGB">
<feFlood flood-opacity="0" result="BackgroundImageFix"/>
<feColorMatrix in="SourceAlpha" type="matrix" values="0 0 0 0 0 0 0 0 0 0 0 0 0 0 0 0 0 0 127 0" result="hardAlpha"/>
<feOffset dy="4"/>
<feGaussianBlur stdDeviation="2"/>
<feColorMatrix type="matrix" values="0 0 0 0 0 0 0 0 0 0 0 0 0 0 0 0 0 0 0.25 0"/>
<feBlend mode="normal" in2="BackgroundImageFix" result="effect1_dropShadow_3307_2432"/>
<feBlend mode="normal" in="SourceGraphic" in2="effect1_dropShadow_3307_2432" result="shape"/>
</filter>
</defs>
</svg>
