<svg width="14" height="21" viewBox="0 0 14 21" fill="none" xmlns="http://www.w3.org/2000/svg">
<path fill-rule="evenodd" clip-rule="evenodd" d="M6.38697 0.0227396C2.31413 0.276132 0.185845 2.58257 0 6.7534H4.10853C4.15998 5.30864 4.96636 4.22857 6.46782 4.06932C7.94163 3.91288 9.33984 4.26392 9.76332 5.27154C10.2208 6.36001 9.19389 7.62487 8.70565 8.15581C7.80198 9.14033 6.33412 9.85851 5.57324 10.9207C4.82741 11.9616 4.69477 13.3311 4.63737 15.0072H8.25837C8.30912 13.9355 8.38051 12.909 8.86805 12.243C9.66113 11.1608 10.8455 10.6537 11.8381 9.79901C12.7862 8.98214 13.7837 7.99761 13.9531 6.47376C14.4616 1.91304 10.7387 -0.248853 6.38697 0.0227396Z" fill="#FACA10"/>
<path d="M6.48047 20.9996C7.74307 20.9996 8.76661 19.9915 8.76661 18.7481C8.76661 17.5046 7.74307 16.4966 6.48047 16.4966C5.21787 16.4966 4.19434 17.5046 4.19434 18.7481C4.19434 19.9915 5.21787 20.9996 6.48047 20.9996Z" fill="#FACA10"/>
</svg>
